<svg xmlns="http://www.w3.org/2000/svg" height="800" width="1200" xml:space="preserve" y="0" x="0" id="Layer_1" version="1.1" viewBox="-14.94 -24.9 129.48 149.4"><style id="style2" type="text/css">.st0{fill:#0065a4}</style><g transform="translate(-.6 -.6)" id="g14"><g id="g12"><path id="path4" d="M42.6 14.2c-.9 0-2.1.6-2.4.6v22.1c4.4-4.9 6.4-10.6 6.4-16.2.1-5.7-2.4-6.5-4-6.5z" class="st0"/><path id="path6" d="M26.7 22.4c-7.3 6.2-11 13.2-12.5 23.1 6.4.2 10.8 4 12.2 9 .1.3.2.8.2.8l.2-.1s-.1-.4-.1-.8v-32z" class="st0"/><path id="path8" d="M42 41.4c-.4.5-.9.9-1.5 1.3v43c1.7.8 3.4 1.2 5.3 1.2 4.4 0 8.6-5.7 8.6-18.1 0-11.4-4-21.8-12.4-27.4z" class="st0"/><path id="path10" d="M50.4.6C23 .6.6 23 .6 50.4s22.3 49.8 49.8 49.8c27.4 0 49.8-22.3 49.8-49.8C100.2 23 77.8.6 50.4.6zm2.4 8.6c2.4.1 5.1.5 6.9 1-.4.6-.9 1.7-.9 4.2v23.1c0 5 .6 9 .8 9.5-.1 0-.1 0-.2.1-1.5-3.4-4-5.7-6.6-6.8.9-1.8 1.3-4.1 1.3-6.6V13.8c-.1-3.4-1.3-4.6-1.3-4.6zM24.3 82.4c1.9-2.9 2.4-6.2 2.4-11.5 0-11.1-4.8-20-12.8-21.3-.5 6.8 2.6 17.6 5.5 19.3.4.3 1 .5 1.4.3v10.2C13.5 72 9.1 61.2 9.1 50.4c0-16.4 9.4-30.2 23.1-37.1 0 0-.7 2.1-.7 4.8v58.7c0 6.2.8 10.7.8 10.7-2.9-1.3-5.8-3.2-8-5.1zm21.2 9c-3.9 0-7.6-1.5-11-2.9 0 0 1.1-2.5 1.1-5.3V15.7c0-2.8-.9-3.5-.9-3.5 2.7-1.1 5.5-2.3 8.4-2.5 4.3-.2 8.5 2.5 8.5 11.5 0 7.4-3.8 13.5-6.2 16.5 6.4 4.5 14.3 14 14.3 31.2 0 15.8-7 22.5-14.2 22.5zm32.9-10.3V70.3c.4.6 1.7.2 2.4-.5 2.7-2.6 5.6-9.5 5.6-18.4 0-10.5-2.7-17.1-4.9-19.9-.4 1.7-5.7 25.7-5.7 25.7l-8.3-32.4-.2.1s.1.7.1 1v49.4c0 7.8 2.3 12 2.3 12-3 1.5-6.1 2.6-9.5 3.5 0 0 2.4-4.9 2.4-12V14.1c0-2.3-.7-3.2-.7-3.2 2.5.7 5.3 2 7.6 3.1 0 0 5.6 22.6 5.7 23.1.1.5.1.8.1.8h.2s0-.3.1-.8 3.2-16.4 3.2-16.4c8 7.5 12.7 18 12.7 29.8.2 11.9-4.9 23.1-13.1 30.6z" class="st0"/></g></g></svg>