<svg width="992" height="642" viewBox="0 0 992 642" fill="none" xmlns="http://www.w3.org/2000/svg">
<g clip-path="url(#clip0_1_3)">
<rect width="992" height="642" fill="white"/>
<rect x="418" y="285" width="502" height="75" rx="37.5" fill="#5440B8"/>
<rect x="418" y="424" width="502" height="75" rx="37.5" fill="#1BDADA"/>
<rect x="418" y="541" width="502" height="75" rx="37.5" fill="#BDDB2A"/>
<rect x="418" y="148" width="502" height="75" rx="37.5" fill="#CD24A7"/>
<rect x="418" y="29" width="502" height="75" rx="37.5" fill="#FBB016"/>
<path d="M497.424 56.536V79H491.952V65.528L486.928 79H482.512L477.456 65.496V79H471.984V56.536H478.448L484.752 72.088L490.992 56.536H497.424ZM500.271 70.04C500.271 68.2053 500.612 66.5947 501.295 65.208C501.999 63.8213 502.948 62.7547 504.143 62.008C505.338 61.2613 506.671 60.888 508.143 60.888C509.402 60.888 510.5 61.144 511.439 61.656C512.399 62.168 513.135 62.84 513.647 63.672V61.144H519.119V79H513.647V76.472C513.114 77.304 512.367 77.976 511.407 78.488C510.468 79 509.37 79.256 508.111 79.256C506.66 79.256 505.338 78.8827 504.143 78.136C502.948 77.368 501.999 76.2907 501.295 74.904C500.612 73.496 500.271 71.8747 500.271 70.04ZM513.647 70.072C513.647 68.7067 513.263 67.6293 512.495 66.84C511.748 66.0507 510.831 65.656 509.743 65.656C508.655 65.656 507.727 66.0507 506.959 66.84C506.212 67.608 505.839 68.6747 505.839 70.04C505.839 71.4053 506.212 72.4933 506.959 73.304C507.727 74.0933 508.655 74.488 509.743 74.488C510.831 74.488 511.748 74.0933 512.495 73.304C513.263 72.5147 513.647 71.4373 513.647 70.072ZM525.798 59.288C524.838 59.288 524.048 59.0107 523.43 58.456C522.832 57.88 522.534 57.176 522.534 56.344C522.534 55.4907 522.832 54.7867 523.43 54.232C524.048 53.656 524.838 53.368 525.798 53.368C526.736 53.368 527.504 53.656 528.102 54.232C528.72 54.7867 529.03 55.4907 529.03 56.344C529.03 57.176 528.72 57.88 528.102 58.456C527.504 59.0107 526.736 59.288 525.798 59.288ZM528.55 81.304C528.55 83.5013 527.995 85.08 526.886 86.04C525.776 87.0213 524.23 87.512 522.246 87.512H520.102V82.872H521.414C522.011 82.872 522.438 82.7547 522.694 82.52C522.95 82.2853 523.078 81.9013 523.078 81.368V61.144H528.55V81.304ZM540.612 79.256C538.863 79.256 537.284 78.8827 535.876 78.136C534.489 77.3893 533.391 76.3227 532.58 74.936C531.791 73.5493 531.396 71.928 531.396 70.072C531.396 68.2373 531.801 66.6267 532.612 65.24C533.423 63.832 534.532 62.7547 535.94 62.008C537.348 61.2613 538.927 60.888 540.676 60.888C542.425 60.888 544.004 61.2613 545.412 62.008C546.82 62.7547 547.929 63.832 548.74 65.24C549.551 66.6267 549.956 68.2373 549.956 70.072C549.956 71.9067 549.54 73.528 548.708 74.936C547.897 76.3227 546.777 77.3893 545.348 78.136C543.94 78.8827 542.361 79.256 540.612 79.256ZM540.612 74.52C541.657 74.52 542.543 74.136 543.268 73.368C544.015 72.6 544.388 71.5013 544.388 70.072C544.388 68.6427 544.025 67.544 543.3 66.776C542.596 66.008 541.721 65.624 540.676 65.624C539.609 65.624 538.724 66.008 538.02 66.776C537.316 67.5227 536.964 68.6213 536.964 70.072C536.964 71.5013 537.305 72.6 537.988 73.368C538.692 74.136 539.567 74.52 540.612 74.52ZM558.331 64.12C558.971 63.1387 559.771 62.3707 560.731 61.816C561.691 61.24 562.758 60.952 563.931 60.952V66.744H562.427C561.062 66.744 560.038 67.0427 559.355 67.64C558.672 68.216 558.331 69.24 558.331 70.712V79H552.859V61.144H558.331V64.12ZM598.768 56.536V79H593.296V65.528L588.272 79H583.856L578.8 65.496V79H573.328V56.536H579.792L586.096 72.088L592.336 56.536H598.768ZM619.535 69.784C619.535 70.296 619.503 70.8293 619.439 71.384H607.055C607.14 72.4933 607.492 73.3467 608.111 73.944C608.751 74.52 609.529 74.808 610.447 74.808C611.812 74.808 612.761 74.232 613.295 73.08H619.119C618.82 74.2533 618.276 75.3093 617.487 76.248C616.719 77.1867 615.748 77.9227 614.575 78.456C613.401 78.9893 612.089 79.256 610.639 79.256C608.889 79.256 607.332 78.8827 605.967 78.136C604.601 77.3893 603.535 76.3227 602.767 74.936C601.999 73.5493 601.615 71.928 601.615 70.072C601.615 68.216 601.988 66.5947 602.735 65.208C603.503 63.8213 604.569 62.7547 605.935 62.008C607.3 61.2613 608.868 60.888 610.639 60.888C612.367 60.888 613.903 61.2507 615.247 61.976C616.591 62.7013 617.636 63.736 618.383 65.08C619.151 66.424 619.535 67.992 619.535 69.784ZM613.935 68.344C613.935 67.4053 613.615 66.6587 612.975 66.104C612.335 65.5493 611.535 65.272 610.575 65.272C609.657 65.272 608.879 65.5387 608.239 66.072C607.62 66.6053 607.236 67.3627 607.087 68.344H613.935ZM621.334 70.04C621.334 68.2053 621.675 66.5947 622.358 65.208C623.062 63.8213 624.011 62.7547 625.206 62.008C626.4 61.2613 627.734 60.888 629.206 60.888C630.379 60.888 631.446 61.1333 632.406 61.624C633.387 62.1147 634.155 62.776 634.71 63.608V55.32H640.182V79H634.71V76.44C634.198 77.2933 633.462 77.976 632.502 78.488C631.563 79 630.464 79.256 629.206 79.256C627.734 79.256 626.4 78.8827 625.206 78.136C624.011 77.368 623.062 76.2907 622.358 74.904C621.675 73.496 621.334 71.8747 621.334 70.04ZM634.71 70.072C634.71 68.7067 634.326 67.6293 633.558 66.84C632.811 66.0507 631.894 65.656 630.806 65.656C629.718 65.656 628.79 66.0507 628.022 66.84C627.275 67.608 626.902 68.6747 626.902 70.04C626.902 71.4053 627.275 72.4933 628.022 73.304C628.79 74.0933 629.718 74.488 630.806 74.488C631.894 74.488 632.811 74.0933 633.558 73.304C634.326 72.5147 634.71 71.4373 634.71 70.072ZM646.892 59.288C645.932 59.288 645.143 59.0107 644.524 58.456C643.927 57.88 643.628 57.176 643.628 56.344C643.628 55.4907 643.927 54.7867 644.524 54.232C645.143 53.656 645.932 53.368 646.892 53.368C647.831 53.368 648.599 53.656 649.196 54.232C649.815 54.7867 650.124 55.4907 650.124 56.344C650.124 57.176 649.815 57.88 649.196 58.456C648.599 59.0107 647.831 59.288 646.892 59.288ZM649.612 61.144V79H644.14V61.144H649.612ZM652.49 70.072C652.49 68.216 652.863 66.5947 653.61 65.208C654.378 63.8213 655.434 62.7547 656.778 62.008C658.143 61.2613 659.7 60.888 661.45 60.888C663.69 60.888 665.556 61.4747 667.05 62.648C668.564 63.8213 669.556 65.4747 670.026 67.608H664.202C663.711 66.2427 662.762 65.56 661.354 65.56C660.351 65.56 659.551 65.9547 658.954 66.744C658.356 67.512 658.058 68.6213 658.058 70.072C658.058 71.5227 658.356 72.6427 658.954 73.432C659.551 74.2 660.351 74.584 661.354 74.584C662.762 74.584 663.711 73.9013 664.202 72.536H670.026C669.556 74.6267 668.564 76.2693 667.05 77.464C665.535 78.6587 663.668 79.256 661.45 79.256C659.7 79.256 658.143 78.8827 656.778 78.136C655.434 77.3893 654.378 76.3227 653.61 74.936C652.863 73.5493 652.49 71.928 652.49 70.072ZM671.865 70.04C671.865 68.2053 672.206 66.5947 672.889 65.208C673.593 63.8213 674.542 62.7547 675.737 62.008C676.931 61.2613 678.265 60.888 679.737 60.888C680.995 60.888 682.094 61.144 683.033 61.656C683.993 62.168 684.729 62.84 685.241 63.672V61.144H690.713V79H685.241V76.472C684.707 77.304 683.961 77.976 683.001 78.488C682.062 79 680.963 79.256 679.705 79.256C678.254 79.256 676.931 78.8827 675.737 78.136C674.542 77.368 673.593 76.2907 672.889 74.904C672.206 73.496 671.865 71.8747 671.865 70.04ZM685.241 70.072C685.241 68.7067 684.857 67.6293 684.089 66.84C683.342 66.0507 682.425 65.656 681.337 65.656C680.249 65.656 679.321 66.0507 678.553 66.84C677.806 67.608 677.433 68.6747 677.433 70.04C677.433 71.4053 677.806 72.4933 678.553 73.304C679.321 74.0933 680.249 74.488 681.337 74.488C682.425 74.488 683.342 74.0933 684.089 73.304C684.857 72.5147 685.241 71.4373 685.241 70.072ZM700.144 55.32V79H694.672V55.32H700.144ZM730.346 56.536V79H724.874V69.752H716.362V79H710.89V56.536H716.362V65.336H724.874V56.536H730.346ZM742.425 79.256C740.675 79.256 739.097 78.8827 737.689 78.136C736.302 77.3893 735.203 76.3227 734.393 74.936C733.603 73.5493 733.209 71.928 733.209 70.072C733.209 68.2373 733.614 66.6267 734.424 65.24C735.235 63.832 736.345 62.7547 737.753 62.008C739.161 61.2613 740.739 60.888 742.489 60.888C744.238 60.888 745.817 61.2613 747.225 62.008C748.633 62.7547 749.742 63.832 750.553 65.24C751.363 66.6267 751.769 68.2373 751.769 70.072C751.769 71.9067 751.353 73.528 750.521 74.936C749.71 76.3227 748.59 77.3893 747.161 78.136C745.753 78.8827 744.174 79.256 742.425 79.256ZM742.425 74.52C743.47 74.52 744.355 74.136 745.081 73.368C745.827 72.6 746.201 71.5013 746.201 70.072C746.201 68.6427 745.838 67.544 745.113 66.776C744.409 66.008 743.534 65.624 742.489 65.624C741.422 65.624 740.537 66.008 739.833 66.776C739.129 67.5227 738.777 68.6213 738.777 70.072C738.777 71.5013 739.118 72.6 739.801 73.368C740.505 74.136 741.379 74.52 742.425 74.52ZM761.936 79.256C760.378 79.256 758.992 78.9893 757.776 78.456C756.56 77.9227 755.6 77.1973 754.896 76.28C754.192 75.3413 753.797 74.296 753.712 73.144H759.12C759.184 73.7627 759.472 74.264 759.984 74.648C760.496 75.032 761.125 75.224 761.872 75.224C762.554 75.224 763.077 75.096 763.44 74.84C763.824 74.5627 764.016 74.2107 764.016 73.784C764.016 73.272 763.749 72.8987 763.216 72.664C762.682 72.408 761.818 72.1307 760.624 71.832C759.344 71.5333 758.277 71.224 757.424 70.904C756.57 70.5627 755.834 70.04 755.216 69.336C754.597 68.6107 754.288 67.64 754.288 66.424C754.288 65.4 754.565 64.472 755.12 63.64C755.696 62.7867 756.528 62.1147 757.616 61.624C758.725 61.1333 760.037 60.888 761.552 60.888C763.792 60.888 765.552 61.4427 766.832 62.552C768.133 63.6613 768.88 65.1333 769.072 66.968H764.016C763.93 66.3493 763.653 65.8587 763.184 65.496C762.736 65.1333 762.138 64.952 761.392 64.952C760.752 64.952 760.261 65.08 759.92 65.336C759.578 65.5707 759.408 65.9013 759.408 66.328C759.408 66.84 759.674 67.224 760.208 67.48C760.762 67.736 761.616 67.992 762.768 68.248C764.09 68.5893 765.168 68.9307 766 69.272C766.832 69.592 767.557 70.1253 768.176 70.872C768.816 71.5973 769.146 72.5787 769.168 73.816C769.168 74.8613 768.869 75.8 768.272 76.632C767.696 77.4427 766.853 78.0827 765.744 78.552C764.656 79.0213 763.386 79.256 761.936 79.256ZM777.987 63.672C778.521 62.84 779.257 62.168 780.195 61.656C781.134 61.144 782.233 60.888 783.491 60.888C784.963 60.888 786.297 61.2613 787.491 62.008C788.686 62.7547 789.625 63.8213 790.307 65.208C791.011 66.5947 791.363 68.2053 791.363 70.04C791.363 71.8747 791.011 73.496 790.307 74.904C789.625 76.2907 788.686 77.368 787.491 78.136C786.297 78.8827 784.963 79.256 783.491 79.256C782.254 79.256 781.155 79 780.195 78.488C779.257 77.976 778.521 77.3147 777.987 76.504V87.512H772.515V61.144H777.987V63.672ZM785.795 70.04C785.795 68.6747 785.411 67.608 784.643 66.84C783.897 66.0507 782.969 65.656 781.859 65.656C780.771 65.656 779.843 66.0507 779.075 66.84C778.329 67.6293 777.955 68.7067 777.955 70.072C777.955 71.4373 778.329 72.5147 779.075 73.304C779.843 74.0933 780.771 74.488 781.859 74.488C782.947 74.488 783.875 74.0933 784.643 73.304C785.411 72.4933 785.795 71.4053 785.795 70.04ZM796.986 59.288C796.026 59.288 795.237 59.0107 794.618 58.456C794.021 57.88 793.722 57.176 793.722 56.344C793.722 55.4907 794.021 54.7867 794.618 54.232C795.237 53.656 796.026 53.368 796.986 53.368C797.925 53.368 798.693 53.656 799.29 54.232C799.909 54.7867 800.218 55.4907 800.218 56.344C800.218 57.176 799.909 57.88 799.29 58.456C798.693 59.0107 797.925 59.288 796.986 59.288ZM799.706 61.144V79H794.234V61.144H799.706ZM813.624 74.36V79H810.84C808.856 79 807.309 78.52 806.2 77.56C805.09 76.5787 804.536 74.9893 804.536 72.792V65.688H802.36V61.144H804.536V56.792H810.008V61.144H813.592V65.688H810.008V72.856C810.008 73.3893 810.136 73.7733 810.392 74.008C810.648 74.2427 811.074 74.36 811.672 74.36H813.624ZM815.584 70.04C815.584 68.2053 815.925 66.5947 816.608 65.208C817.312 63.8213 818.261 62.7547 819.456 62.008C820.65 61.2613 821.984 60.888 823.456 60.888C824.714 60.888 825.813 61.144 826.752 61.656C827.712 62.168 828.448 62.84 828.96 63.672V61.144H834.432V79H828.96V76.472C828.426 77.304 827.68 77.976 826.72 78.488C825.781 79 824.682 79.256 823.424 79.256C821.973 79.256 820.65 78.8827 819.456 78.136C818.261 77.368 817.312 76.2907 816.608 74.904C815.925 73.496 815.584 71.8747 815.584 70.04ZM828.96 70.072C828.96 68.7067 828.576 67.6293 827.808 66.84C827.061 66.0507 826.144 65.656 825.056 65.656C823.968 65.656 823.04 66.0507 822.272 66.84C821.525 67.608 821.152 68.6747 821.152 70.04C821.152 71.4053 821.525 72.4933 822.272 73.304C823.04 74.0933 823.968 74.488 825.056 74.488C826.144 74.488 827.061 74.0933 827.808 73.304C828.576 72.5147 828.96 71.4373 828.96 70.072ZM843.862 55.32V79H838.39V55.32H843.862ZM855.092 79.256C853.534 79.256 852.148 78.9893 850.932 78.456C849.716 77.9227 848.756 77.1973 848.052 76.28C847.348 75.3413 846.953 74.296 846.868 73.144H852.276C852.34 73.7627 852.628 74.264 853.14 74.648C853.652 75.032 854.281 75.224 855.028 75.224C855.71 75.224 856.233 75.096 856.596 74.84C856.98 74.5627 857.172 74.2107 857.172 73.784C857.172 73.272 856.905 72.8987 856.372 72.664C855.838 72.408 854.974 72.1307 853.78 71.832C852.5 71.5333 851.433 71.224 850.58 70.904C849.726 70.5627 848.99 70.04 848.372 69.336C847.753 68.6107 847.444 67.64 847.444 66.424C847.444 65.4 847.721 64.472 848.276 63.64C848.852 62.7867 849.684 62.1147 850.772 61.624C851.881 61.1333 853.193 60.888 854.708 60.888C856.948 60.888 858.708 61.4427 859.988 62.552C861.289 63.6613 862.036 65.1333 862.228 66.968H857.172C857.086 66.3493 856.809 65.8587 856.34 65.496C855.892 65.1333 855.294 64.952 854.548 64.952C853.908 64.952 853.417 65.08 853.076 65.336C852.734 65.5707 852.564 65.9013 852.564 66.328C852.564 66.84 852.83 67.224 853.364 67.48C853.918 67.736 854.772 67.992 855.924 68.248C857.246 68.5893 858.324 68.9307 859.156 69.272C859.988 69.592 860.713 70.1253 861.332 70.872C861.972 71.5973 862.302 72.5787 862.324 73.816C862.324 74.8613 862.025 75.8 861.428 76.632C860.852 77.4427 860.009 78.0827 858.9 78.552C857.812 79.0213 856.542 79.256 855.092 79.256Z" fill="white"/>
<path d="M510.424 172.536V195H504.952V181.528L499.928 195H495.512L490.456 181.496V195H484.984V172.536H491.448L497.752 188.088L503.992 172.536H510.424ZM513.271 186.04C513.271 184.205 513.612 182.595 514.295 181.208C514.999 179.821 515.948 178.755 517.143 178.008C518.338 177.261 519.671 176.888 521.143 176.888C522.402 176.888 523.5 177.144 524.439 177.656C525.399 178.168 526.135 178.84 526.647 179.672V177.144H532.119V195H526.647V192.472C526.114 193.304 525.367 193.976 524.407 194.488C523.468 195 522.37 195.256 521.111 195.256C519.66 195.256 518.338 194.883 517.143 194.136C515.948 193.368 514.999 192.291 514.295 190.904C513.612 189.496 513.271 187.875 513.271 186.04ZM526.647 186.072C526.647 184.707 526.263 183.629 525.495 182.84C524.748 182.051 523.831 181.656 522.743 181.656C521.655 181.656 520.727 182.051 519.959 182.84C519.212 183.608 518.839 184.675 518.839 186.04C518.839 187.405 519.212 188.493 519.959 189.304C520.727 190.093 521.655 190.488 522.743 190.488C523.831 190.488 524.748 190.093 525.495 189.304C526.263 188.515 526.647 187.437 526.647 186.072ZM538.798 175.288C537.838 175.288 537.048 175.011 536.43 174.456C535.832 173.88 535.534 173.176 535.534 172.344C535.534 171.491 535.832 170.787 536.43 170.232C537.048 169.656 537.838 169.368 538.798 169.368C539.736 169.368 540.504 169.656 541.102 170.232C541.72 170.787 542.03 171.491 542.03 172.344C542.03 173.176 541.72 173.88 541.102 174.456C540.504 175.011 539.736 175.288 538.798 175.288ZM541.55 197.304C541.55 199.501 540.995 201.08 539.886 202.04C538.776 203.021 537.23 203.512 535.246 203.512H533.102V198.872H534.414C535.011 198.872 535.438 198.755 535.694 198.52C535.95 198.285 536.078 197.901 536.078 197.368V177.144H541.55V197.304ZM553.612 195.256C551.863 195.256 550.284 194.883 548.876 194.136C547.489 193.389 546.391 192.323 545.58 190.936C544.791 189.549 544.396 187.928 544.396 186.072C544.396 184.237 544.801 182.627 545.612 181.24C546.423 179.832 547.532 178.755 548.94 178.008C550.348 177.261 551.927 176.888 553.676 176.888C555.425 176.888 557.004 177.261 558.412 178.008C559.82 178.755 560.929 179.832 561.74 181.24C562.551 182.627 562.956 184.237 562.956 186.072C562.956 187.907 562.54 189.528 561.708 190.936C560.897 192.323 559.777 193.389 558.348 194.136C556.94 194.883 555.361 195.256 553.612 195.256ZM553.612 190.52C554.657 190.52 555.543 190.136 556.268 189.368C557.015 188.6 557.388 187.501 557.388 186.072C557.388 184.643 557.025 183.544 556.3 182.776C555.596 182.008 554.721 181.624 553.676 181.624C552.609 181.624 551.724 182.008 551.02 182.776C550.316 183.523 549.964 184.621 549.964 186.072C549.964 187.501 550.305 188.6 550.988 189.368C551.692 190.136 552.567 190.52 553.612 190.52ZM571.331 180.12C571.971 179.139 572.771 178.371 573.731 177.816C574.691 177.24 575.758 176.952 576.931 176.952V182.744H575.427C574.062 182.744 573.038 183.043 572.355 183.64C571.672 184.216 571.331 185.24 571.331 186.712V195H565.859V177.144H571.331V180.12ZM611.768 172.536V195H606.296V181.528L601.272 195H596.856L591.8 181.496V195H586.328V172.536H592.792L599.096 188.088L605.336 172.536H611.768ZM632.535 185.784C632.535 186.296 632.503 186.829 632.439 187.384H620.055C620.14 188.493 620.492 189.347 621.111 189.944C621.751 190.52 622.529 190.808 623.447 190.808C624.812 190.808 625.761 190.232 626.295 189.08H632.119C631.82 190.253 631.276 191.309 630.487 192.248C629.719 193.187 628.748 193.923 627.575 194.456C626.401 194.989 625.089 195.256 623.639 195.256C621.889 195.256 620.332 194.883 618.967 194.136C617.601 193.389 616.535 192.323 615.767 190.936C614.999 189.549 614.615 187.928 614.615 186.072C614.615 184.216 614.988 182.595 615.735 181.208C616.503 179.821 617.569 178.755 618.935 178.008C620.3 177.261 621.868 176.888 623.639 176.888C625.367 176.888 626.903 177.251 628.247 177.976C629.591 178.701 630.636 179.736 631.383 181.08C632.151 182.424 632.535 183.992 632.535 185.784ZM626.935 184.344C626.935 183.405 626.615 182.659 625.975 182.104C625.335 181.549 624.535 181.272 623.575 181.272C622.657 181.272 621.879 181.539 621.239 182.072C620.62 182.605 620.236 183.363 620.087 184.344H626.935ZM634.334 186.04C634.334 184.205 634.675 182.595 635.358 181.208C636.062 179.821 637.011 178.755 638.206 178.008C639.4 177.261 640.734 176.888 642.206 176.888C643.379 176.888 644.446 177.133 645.406 177.624C646.387 178.115 647.155 178.776 647.71 179.608V171.32H653.182V195H647.71V192.44C647.198 193.293 646.462 193.976 645.502 194.488C644.563 195 643.464 195.256 642.206 195.256C640.734 195.256 639.4 194.883 638.206 194.136C637.011 193.368 636.062 192.291 635.358 190.904C634.675 189.496 634.334 187.875 634.334 186.04ZM647.71 186.072C647.71 184.707 647.326 183.629 646.558 182.84C645.811 182.051 644.894 181.656 643.806 181.656C642.718 181.656 641.79 182.051 641.022 182.84C640.275 183.608 639.902 184.675 639.902 186.04C639.902 187.405 640.275 188.493 641.022 189.304C641.79 190.093 642.718 190.488 643.806 190.488C644.894 190.488 645.811 190.093 646.558 189.304C647.326 188.515 647.71 187.437 647.71 186.072ZM659.892 175.288C658.932 175.288 658.143 175.011 657.524 174.456C656.927 173.88 656.628 173.176 656.628 172.344C656.628 171.491 656.927 170.787 657.524 170.232C658.143 169.656 658.932 169.368 659.892 169.368C660.831 169.368 661.599 169.656 662.196 170.232C662.815 170.787 663.124 171.491 663.124 172.344C663.124 173.176 662.815 173.88 662.196 174.456C661.599 175.011 660.831 175.288 659.892 175.288ZM662.612 177.144V195H657.14V177.144H662.612ZM665.49 186.072C665.49 184.216 665.863 182.595 666.61 181.208C667.378 179.821 668.434 178.755 669.778 178.008C671.143 177.261 672.7 176.888 674.45 176.888C676.69 176.888 678.556 177.475 680.05 178.648C681.564 179.821 682.556 181.475 683.026 183.608H677.202C676.711 182.243 675.762 181.56 674.354 181.56C673.351 181.56 672.551 181.955 671.954 182.744C671.356 183.512 671.058 184.621 671.058 186.072C671.058 187.523 671.356 188.643 671.954 189.432C672.551 190.2 673.351 190.584 674.354 190.584C675.762 190.584 676.711 189.901 677.202 188.536H683.026C682.556 190.627 681.564 192.269 680.05 193.464C678.535 194.659 676.668 195.256 674.45 195.256C672.7 195.256 671.143 194.883 669.778 194.136C668.434 193.389 667.378 192.323 666.61 190.936C665.863 189.549 665.49 187.928 665.49 186.072ZM684.865 186.04C684.865 184.205 685.206 182.595 685.889 181.208C686.593 179.821 687.542 178.755 688.737 178.008C689.931 177.261 691.265 176.888 692.737 176.888C693.995 176.888 695.094 177.144 696.033 177.656C696.993 178.168 697.729 178.84 698.241 179.672V177.144H703.713V195H698.241V192.472C697.707 193.304 696.961 193.976 696.001 194.488C695.062 195 693.963 195.256 692.705 195.256C691.254 195.256 689.931 194.883 688.737 194.136C687.542 193.368 686.593 192.291 685.889 190.904C685.206 189.496 684.865 187.875 684.865 186.04ZM698.241 186.072C698.241 184.707 697.857 183.629 697.089 182.84C696.342 182.051 695.425 181.656 694.337 181.656C693.249 181.656 692.321 182.051 691.553 182.84C690.806 183.608 690.433 184.675 690.433 186.04C690.433 187.405 690.806 188.493 691.553 189.304C692.321 190.093 693.249 190.488 694.337 190.488C695.425 190.488 696.342 190.093 697.089 189.304C697.857 188.515 698.241 187.437 698.241 186.072ZM713.144 171.32V195H707.672V171.32H713.144ZM737.49 183.48C738.792 183.757 739.837 184.408 740.626 185.432C741.416 186.435 741.81 187.587 741.81 188.888C741.81 190.765 741.149 192.259 739.826 193.368C738.525 194.456 736.701 195 734.354 195H723.89V172.536H734.002C736.285 172.536 738.066 173.059 739.346 174.104C740.648 175.149 741.298 176.568 741.298 178.36C741.298 179.683 740.946 180.781 740.242 181.656C739.56 182.531 738.642 183.139 737.49 183.48ZM729.362 181.624H732.946C733.842 181.624 734.525 181.432 734.994 181.048C735.485 180.643 735.73 180.056 735.73 179.288C735.73 178.52 735.485 177.933 734.994 177.528C734.525 177.123 733.842 176.92 732.946 176.92H729.362V181.624ZM733.394 190.584C734.312 190.584 735.016 190.381 735.506 189.976C736.018 189.549 736.274 188.941 736.274 188.152C736.274 187.363 736.008 186.744 735.474 186.296C734.962 185.848 734.248 185.624 733.33 185.624H729.362V190.584H733.394ZM753.112 195.256C751.363 195.256 749.784 194.883 748.376 194.136C746.989 193.389 745.891 192.323 745.08 190.936C744.291 189.549 743.896 187.928 743.896 186.072C743.896 184.237 744.301 182.627 745.112 181.24C745.923 179.832 747.032 178.755 748.44 178.008C749.848 177.261 751.427 176.888 753.176 176.888C754.925 176.888 756.504 177.261 757.912 178.008C759.32 178.755 760.429 179.832 761.24 181.24C762.051 182.627 762.456 184.237 762.456 186.072C762.456 187.907 762.04 189.528 761.208 190.936C760.397 192.323 759.277 193.389 757.848 194.136C756.44 194.883 754.861 195.256 753.112 195.256ZM753.112 190.52C754.157 190.52 755.043 190.136 755.768 189.368C756.515 188.6 756.888 187.501 756.888 186.072C756.888 184.643 756.525 183.544 755.8 182.776C755.096 182.008 754.221 181.624 753.176 181.624C752.109 181.624 751.224 182.008 750.52 182.776C749.816 183.523 749.464 184.621 749.464 186.072C749.464 187.501 749.805 188.6 750.488 189.368C751.192 190.136 752.067 190.52 753.112 190.52ZM764.271 186.04C764.271 184.205 764.612 182.595 765.295 181.208C765.999 179.821 766.948 178.755 768.143 178.008C769.338 177.261 770.671 176.888 772.143 176.888C773.402 176.888 774.5 177.144 775.439 177.656C776.399 178.168 777.135 178.84 777.647 179.672V177.144H783.119V195H777.647V192.472C777.114 193.304 776.367 193.976 775.407 194.488C774.468 195 773.37 195.256 772.111 195.256C770.66 195.256 769.338 194.883 768.143 194.136C766.948 193.368 765.999 192.291 765.295 190.904C764.612 189.496 764.271 187.875 764.271 186.04ZM777.647 186.072C777.647 184.707 777.263 183.629 776.495 182.84C775.748 182.051 774.831 181.656 773.743 181.656C772.655 181.656 771.727 182.051 770.959 182.84C770.212 183.608 769.839 184.675 769.839 186.04C769.839 187.405 770.212 188.493 770.959 189.304C771.727 190.093 772.655 190.488 773.743 190.488C774.831 190.488 775.748 190.093 776.495 189.304C777.263 188.515 777.647 187.437 777.647 186.072ZM792.55 180.12C793.19 179.139 793.99 178.371 794.95 177.816C795.91 177.24 796.976 176.952 798.15 176.952V182.744H796.646C795.28 182.744 794.256 183.043 793.574 183.64C792.891 184.216 792.55 185.24 792.55 186.712V195H787.078V177.144H792.55V180.12ZM799.677 186.04C799.677 184.205 800.019 182.595 800.701 181.208C801.405 179.821 802.355 178.755 803.549 178.008C804.744 177.261 806.077 176.888 807.549 176.888C808.723 176.888 809.789 177.133 810.749 177.624C811.731 178.115 812.499 178.776 813.053 179.608V171.32H818.525V195H813.053V192.44C812.541 193.293 811.805 193.976 810.845 194.488C809.907 195 808.808 195.256 807.549 195.256C806.077 195.256 804.744 194.883 803.549 194.136C802.355 193.368 801.405 192.291 800.701 190.904C800.019 189.496 799.677 187.875 799.677 186.04ZM813.053 186.072C813.053 184.707 812.669 183.629 811.901 182.84C811.155 182.051 810.237 181.656 809.149 181.656C808.061 181.656 807.133 182.051 806.365 182.84C805.619 183.608 805.245 184.675 805.245 186.04C805.245 187.405 805.619 188.493 806.365 189.304C807.133 190.093 808.061 190.488 809.149 190.488C810.237 190.488 811.155 190.093 811.901 189.304C812.669 188.515 813.053 187.437 813.053 186.072ZM829.748 195.256C828.191 195.256 826.804 194.989 825.588 194.456C824.372 193.923 823.412 193.197 822.708 192.28C822.004 191.341 821.609 190.296 821.524 189.144H826.932C826.996 189.763 827.284 190.264 827.796 190.648C828.308 191.032 828.937 191.224 829.684 191.224C830.367 191.224 830.889 191.096 831.252 190.84C831.636 190.563 831.828 190.211 831.828 189.784C831.828 189.272 831.561 188.899 831.028 188.664C830.495 188.408 829.631 188.131 828.436 187.832C827.156 187.533 826.089 187.224 825.236 186.904C824.383 186.563 823.647 186.04 823.028 185.336C822.409 184.611 822.1 183.64 822.1 182.424C822.1 181.4 822.377 180.472 822.932 179.64C823.508 178.787 824.34 178.115 825.428 177.624C826.537 177.133 827.849 176.888 829.364 176.888C831.604 176.888 833.364 177.443 834.644 178.552C835.945 179.661 836.692 181.133 836.884 182.968H831.828C831.743 182.349 831.465 181.859 830.996 181.496C830.548 181.133 829.951 180.952 829.204 180.952C828.564 180.952 828.073 181.08 827.732 181.336C827.391 181.571 827.22 181.901 827.22 182.328C827.22 182.84 827.487 183.224 828.02 183.48C828.575 183.736 829.428 183.992 830.58 184.248C831.903 184.589 832.98 184.931 833.812 185.272C834.644 185.592 835.369 186.125 835.988 186.872C836.628 187.597 836.959 188.579 836.98 189.816C836.98 190.861 836.681 191.8 836.084 192.632C835.508 193.443 834.665 194.083 833.556 194.552C832.468 195.021 831.199 195.256 829.748 195.256Z" fill="white"/>
<path d="M450.456 313.92V318.464H457.784V322.688H450.456V327.616H458.744V332H444.984V309.536H458.744V313.92H450.456ZM472.857 332L469.433 327.04L466.553 332H460.633L466.521 322.88L460.473 314.144H466.617L470.041 319.072L472.921 314.144H478.841L472.857 323.136L479.001 332H472.857ZM497.941 322.784C497.941 323.296 497.909 323.829 497.845 324.384H485.461C485.546 325.493 485.898 326.347 486.517 326.944C487.157 327.52 487.936 327.808 488.853 327.808C490.218 327.808 491.168 327.232 491.701 326.08H497.525C497.226 327.253 496.682 328.309 495.893 329.248C495.125 330.187 494.154 330.923 492.981 331.456C491.808 331.989 490.496 332.256 489.045 332.256C487.296 332.256 485.738 331.883 484.373 331.136C483.008 330.389 481.941 329.323 481.173 327.936C480.405 326.549 480.021 324.928 480.021 323.072C480.021 321.216 480.394 319.595 481.141 318.208C481.909 316.821 482.976 315.755 484.341 315.008C485.706 314.261 487.274 313.888 489.045 313.888C490.773 313.888 492.309 314.251 493.653 314.976C494.997 315.701 496.042 316.736 496.789 318.08C497.557 319.424 497.941 320.992 497.941 322.784ZM492.341 321.344C492.341 320.405 492.021 319.659 491.381 319.104C490.741 318.549 489.941 318.272 488.981 318.272C488.064 318.272 487.285 318.539 486.645 319.072C486.026 319.605 485.642 320.363 485.493 321.344H492.341ZM499.74 323.072C499.74 321.216 500.113 319.595 500.86 318.208C501.628 316.821 502.684 315.755 504.028 315.008C505.393 314.261 506.95 313.888 508.7 313.888C510.94 313.888 512.806 314.475 514.3 315.648C515.814 316.821 516.806 318.475 517.276 320.608H511.452C510.961 319.243 510.012 318.56 508.604 318.56C507.601 318.56 506.801 318.955 506.204 319.744C505.606 320.512 505.308 321.621 505.308 323.072C505.308 324.523 505.606 325.643 506.204 326.432C506.801 327.2 507.601 327.584 508.604 327.584C510.012 327.584 510.961 326.901 511.452 325.536H517.276C516.806 327.627 515.814 329.269 514.3 330.464C512.785 331.659 510.918 332.256 508.7 332.256C506.95 332.256 505.393 331.883 504.028 331.136C502.684 330.389 501.628 329.323 500.86 327.936C500.113 326.549 499.74 324.928 499.74 323.072ZM537.835 314.144V332H532.363V329.568C531.808 330.357 531.051 330.997 530.091 331.488C529.152 331.957 528.107 332.192 526.955 332.192C525.589 332.192 524.384 331.893 523.339 331.296C522.293 330.677 521.483 329.792 520.907 328.64C520.331 327.488 520.043 326.133 520.043 324.576V314.144H525.483V323.84C525.483 325.035 525.792 325.963 526.411 326.624C527.029 327.285 527.861 327.616 528.907 327.616C529.973 327.616 530.816 327.285 531.435 326.624C532.053 325.963 532.363 325.035 532.363 323.84V314.144H537.835ZM551.717 327.36V332H548.933C546.949 332 545.403 331.52 544.293 330.56C543.184 329.579 542.629 327.989 542.629 325.792V318.688H540.453V314.144H542.629V309.792H548.101V314.144H551.685V318.688H548.101V325.856C548.101 326.389 548.229 326.773 548.485 327.008C548.741 327.243 549.168 327.36 549.765 327.36H551.717ZM557.517 312.288C556.557 312.288 555.768 312.011 555.149 311.456C554.552 310.88 554.253 310.176 554.253 309.344C554.253 308.491 554.552 307.787 555.149 307.232C555.768 306.656 556.557 306.368 557.517 306.368C558.456 306.368 559.224 306.656 559.821 307.232C560.44 307.787 560.749 308.491 560.749 309.344C560.749 310.176 560.44 310.88 559.821 311.456C559.224 312.011 558.456 312.288 557.517 312.288ZM560.237 314.144V332H554.765V314.144H560.237ZM572.235 326.88L576.107 314.144H581.931L575.595 332H568.843L562.507 314.144H568.363L572.235 326.88ZM601.066 322.784C601.066 323.296 601.034 323.829 600.97 324.384H588.586C588.671 325.493 589.023 326.347 589.642 326.944C590.282 327.52 591.061 327.808 591.978 327.808C593.343 327.808 594.293 327.232 594.826 326.08H600.65C600.351 327.253 599.807 328.309 599.018 329.248C598.25 330.187 597.279 330.923 596.106 331.456C594.933 331.989 593.621 332.256 592.17 332.256C590.421 332.256 588.863 331.883 587.498 331.136C586.133 330.389 585.066 329.323 584.298 327.936C583.53 326.549 583.146 324.928 583.146 323.072C583.146 321.216 583.519 319.595 584.266 318.208C585.034 316.821 586.101 315.755 587.466 315.008C588.831 314.261 590.399 313.888 592.17 313.888C593.898 313.888 595.434 314.251 596.778 314.976C598.122 315.701 599.167 316.736 599.914 318.08C600.682 319.424 601.066 320.992 601.066 322.784ZM595.466 321.344C595.466 320.405 595.146 319.659 594.506 319.104C593.866 318.549 593.066 318.272 592.106 318.272C591.189 318.272 590.41 318.539 589.77 319.072C589.151 319.605 588.767 320.363 588.618 321.344H595.466ZM616.206 327.776H623.374V332H610.734V309.536H616.206V327.776ZM642.816 322.784C642.816 323.296 642.784 323.829 642.72 324.384H630.336C630.421 325.493 630.773 326.347 631.392 326.944C632.032 327.52 632.811 327.808 633.728 327.808C635.093 327.808 636.043 327.232 636.576 326.08H642.4C642.101 327.253 641.557 328.309 640.768 329.248C640 330.187 639.029 330.923 637.856 331.456C636.683 331.989 635.371 332.256 633.92 332.256C632.171 332.256 630.613 331.883 629.248 331.136C627.883 330.389 626.816 329.323 626.048 327.936C625.28 326.549 624.896 324.928 624.896 323.072C624.896 321.216 625.269 319.595 626.016 318.208C626.784 316.821 627.851 315.755 629.216 315.008C630.581 314.261 632.149 313.888 633.92 313.888C635.648 313.888 637.184 314.251 638.528 314.976C639.872 315.701 640.917 316.736 641.664 318.08C642.432 319.424 642.816 320.992 642.816 322.784ZM637.216 321.344C637.216 320.405 636.896 319.659 636.256 319.104C635.616 318.549 634.816 318.272 633.856 318.272C632.939 318.272 632.16 318.539 631.52 319.072C630.901 319.605 630.517 320.363 630.368 321.344H637.216ZM644.615 323.04C644.615 321.205 644.956 319.595 645.639 318.208C646.343 316.821 647.292 315.755 648.487 315.008C649.681 314.261 651.015 313.888 652.487 313.888C653.745 313.888 654.844 314.144 655.783 314.656C656.743 315.168 657.479 315.84 657.991 316.672V314.144H663.463V332H657.991V329.472C657.457 330.304 656.711 330.976 655.751 331.488C654.812 332 653.713 332.256 652.455 332.256C651.004 332.256 649.681 331.883 648.487 331.136C647.292 330.368 646.343 329.291 645.639 327.904C644.956 326.496 644.615 324.875 644.615 323.04ZM657.991 323.072C657.991 321.707 657.607 320.629 656.839 319.84C656.092 319.051 655.175 318.656 654.087 318.656C652.999 318.656 652.071 319.051 651.303 319.84C650.556 320.608 650.183 321.675 650.183 323.04C650.183 324.405 650.556 325.493 651.303 326.304C652.071 327.093 652.999 327.488 654.087 327.488C655.175 327.488 656.092 327.093 656.839 326.304C657.607 325.515 657.991 324.437 657.991 323.072ZM666.334 323.04C666.334 321.205 666.675 319.595 667.358 318.208C668.062 316.821 669.011 315.755 670.206 315.008C671.4 314.261 672.734 313.888 674.206 313.888C675.379 313.888 676.446 314.133 677.406 314.624C678.387 315.115 679.155 315.776 679.71 316.608V308.32H685.182V332H679.71V329.44C679.198 330.293 678.462 330.976 677.502 331.488C676.563 332 675.464 332.256 674.206 332.256C672.734 332.256 671.4 331.883 670.206 331.136C669.011 330.368 668.062 329.291 667.358 327.904C666.675 326.496 666.334 324.875 666.334 323.04ZM679.71 323.072C679.71 321.707 679.326 320.629 678.558 319.84C677.811 319.051 676.894 318.656 675.806 318.656C674.718 318.656 673.79 319.051 673.022 319.84C672.275 320.608 671.902 321.675 671.902 323.04C671.902 324.405 672.275 325.493 673.022 326.304C673.79 327.093 674.718 327.488 675.806 327.488C676.894 327.488 677.811 327.093 678.558 326.304C679.326 325.515 679.71 324.437 679.71 323.072ZM705.972 322.784C705.972 323.296 705.94 323.829 705.876 324.384H693.492C693.578 325.493 693.93 326.347 694.548 326.944C695.188 327.52 695.967 327.808 696.884 327.808C698.25 327.808 699.199 327.232 699.732 326.08H705.556C705.258 327.253 704.714 328.309 703.924 329.248C703.156 330.187 702.186 330.923 701.012 331.456C699.839 331.989 698.527 332.256 697.076 332.256C695.327 332.256 693.77 331.883 692.404 331.136C691.039 330.389 689.972 329.323 689.204 327.936C688.436 326.549 688.052 324.928 688.052 323.072C688.052 321.216 688.426 319.595 689.172 318.208C689.94 316.821 691.007 315.755 692.372 315.008C693.738 314.261 695.306 313.888 697.076 313.888C698.804 313.888 700.34 314.251 701.684 314.976C703.028 315.701 704.074 316.736 704.82 318.08C705.588 319.424 705.972 320.992 705.972 322.784ZM700.372 321.344C700.372 320.405 700.052 319.659 699.412 319.104C698.772 318.549 697.972 318.272 697.012 318.272C696.095 318.272 695.316 318.539 694.676 319.072C694.058 319.605 693.674 320.363 693.524 321.344H700.372ZM714.331 317.12C714.971 316.139 715.771 315.371 716.731 314.816C717.691 314.24 718.758 313.952 719.931 313.952V319.744H718.427C717.062 319.744 716.038 320.043 715.355 320.64C714.672 321.216 714.331 322.24 714.331 323.712V332H708.859V314.144H714.331V317.12ZM729.811 332.256C728.253 332.256 726.867 331.989 725.651 331.456C724.435 330.923 723.475 330.197 722.771 329.28C722.067 328.341 721.672 327.296 721.587 326.144H726.995C727.059 326.763 727.347 327.264 727.859 327.648C728.371 328.032 729 328.224 729.747 328.224C730.429 328.224 730.952 328.096 731.315 327.84C731.699 327.563 731.891 327.211 731.891 326.784C731.891 326.272 731.624 325.899 731.091 325.664C730.557 325.408 729.693 325.131 728.499 324.832C727.219 324.533 726.152 324.224 725.299 323.904C724.445 323.563 723.709 323.04 723.091 322.336C722.472 321.611 722.163 320.64 722.163 319.424C722.163 318.4 722.44 317.472 722.995 316.64C723.571 315.787 724.403 315.115 725.491 314.624C726.6 314.133 727.912 313.888 729.427 313.888C731.667 313.888 733.427 314.443 734.707 315.552C736.008 316.661 736.755 318.133 736.947 319.968H731.891C731.805 319.349 731.528 318.859 731.059 318.496C730.611 318.133 730.013 317.952 729.267 317.952C728.627 317.952 728.136 318.08 727.795 318.336C727.453 318.571 727.283 318.901 727.283 319.328C727.283 319.84 727.549 320.224 728.083 320.48C728.637 320.736 729.491 320.992 730.643 321.248C731.965 321.589 733.043 321.931 733.875 322.272C734.707 322.592 735.432 323.125 736.051 323.872C736.691 324.597 737.021 325.579 737.043 326.816C737.043 327.861 736.744 328.8 736.147 329.632C735.571 330.443 734.728 331.083 733.619 331.552C732.531 332.021 731.261 332.256 729.811 332.256ZM751.366 313.952C753.414 313.952 755.057 314.635 756.294 316C757.532 317.344 758.15 319.2 758.15 321.568V332H752.71V322.304C752.71 321.109 752.401 320.181 751.782 319.52C751.164 318.859 750.332 318.528 749.286 318.528C748.241 318.528 747.409 318.859 746.79 319.52C746.172 320.181 745.862 321.109 745.862 322.304V332H740.39V308.32H745.862V316.544C746.417 315.755 747.174 315.125 748.134 314.656C749.094 314.187 750.172 313.952 751.366 313.952ZM764.705 312.288C763.745 312.288 762.955 312.011 762.337 311.456C761.739 310.88 761.441 310.176 761.441 309.344C761.441 308.491 761.739 307.787 762.337 307.232C762.955 306.656 763.745 306.368 764.705 306.368C765.643 306.368 766.411 306.656 767.009 307.232C767.627 307.787 767.937 308.491 767.937 309.344C767.937 310.176 767.627 310.88 767.009 311.456C766.411 312.011 765.643 312.288 764.705 312.288ZM767.425 314.144V332H761.953V314.144H767.425ZM776.862 316.672C777.396 315.84 778.132 315.168 779.07 314.656C780.009 314.144 781.108 313.888 782.366 313.888C783.838 313.888 785.172 314.261 786.366 315.008C787.561 315.755 788.5 316.821 789.182 318.208C789.886 319.595 790.238 321.205 790.238 323.04C790.238 324.875 789.886 326.496 789.182 327.904C788.5 329.291 787.561 330.368 786.366 331.136C785.172 331.883 783.838 332.256 782.366 332.256C781.129 332.256 780.03 332 779.07 331.488C778.132 330.976 777.396 330.315 776.862 329.504V340.512H771.39V314.144H776.862V316.672ZM784.67 323.04C784.67 321.675 784.286 320.608 783.518 319.84C782.772 319.051 781.844 318.656 780.734 318.656C779.646 318.656 778.718 319.051 777.95 319.84C777.204 320.629 776.83 321.707 776.83 323.072C776.83 324.437 777.204 325.515 777.95 326.304C778.718 327.093 779.646 327.488 780.734 327.488C781.822 327.488 782.75 327.093 783.518 326.304C784.286 325.493 784.67 324.405 784.67 323.04ZM819.346 309.536V332H813.874V322.752H805.362V332H799.89V309.536H805.362V318.336H813.874V309.536H819.346ZM826.049 312.288C825.089 312.288 824.299 312.011 823.681 311.456C823.083 310.88 822.785 310.176 822.785 309.344C822.785 308.491 823.083 307.787 823.681 307.232C824.299 306.656 825.089 306.368 826.049 306.368C826.987 306.368 827.755 306.656 828.353 307.232C828.971 307.787 829.281 308.491 829.281 309.344C829.281 310.176 828.971 310.88 828.353 311.456C827.755 312.011 826.987 312.288 826.049 312.288ZM828.769 314.144V332H823.297V314.144H828.769ZM838.206 317.12C838.846 316.139 839.646 315.371 840.606 314.816C841.566 314.24 842.633 313.952 843.806 313.952V319.744H842.302C840.937 319.744 839.913 320.043 839.23 320.64C838.547 321.216 838.206 322.24 838.206 323.712V332H832.734V314.144H838.206V317.12ZM849.174 312.288C848.214 312.288 847.424 312.011 846.806 311.456C846.208 310.88 845.91 310.176 845.91 309.344C845.91 308.491 846.208 307.787 846.806 307.232C847.424 306.656 848.214 306.368 849.174 306.368C850.112 306.368 850.88 306.656 851.478 307.232C852.096 307.787 852.406 308.491 852.406 309.344C852.406 310.176 852.096 310.88 851.478 311.456C850.88 312.011 850.112 312.288 849.174 312.288ZM851.894 314.144V332H846.422V314.144H851.894ZM866.739 313.952C868.83 313.952 870.494 314.635 871.731 316C872.99 317.344 873.619 319.2 873.619 321.568V332H868.179V322.304C868.179 321.109 867.87 320.181 867.251 319.52C866.632 318.859 865.8 318.528 864.755 318.528C863.71 318.528 862.878 318.859 862.259 319.52C861.64 320.181 861.331 321.109 861.331 322.304V332H855.859V314.144H861.331V316.512C861.886 315.723 862.632 315.104 863.571 314.656C864.51 314.187 865.566 313.952 866.739 313.952ZM884.206 313.888C885.464 313.888 886.563 314.144 887.502 314.656C888.462 315.168 889.198 315.84 889.71 316.672V314.144H895.182V331.968C895.182 333.611 894.851 335.093 894.19 336.416C893.55 337.76 892.558 338.827 891.214 339.616C889.891 340.405 888.238 340.8 886.254 340.8C883.608 340.8 881.464 340.171 879.822 338.912C878.179 337.675 877.24 335.989 877.006 333.856H882.414C882.584 334.539 882.99 335.072 883.63 335.456C884.27 335.861 885.059 336.064 885.998 336.064C887.128 336.064 888.024 335.733 888.686 335.072C889.368 334.432 889.71 333.397 889.71 331.968V329.44C889.176 330.272 888.44 330.955 887.502 331.488C886.563 332 885.464 332.256 884.206 332.256C882.734 332.256 881.4 331.883 880.206 331.136C879.011 330.368 878.062 329.291 877.358 327.904C876.675 326.496 876.334 324.875 876.334 323.04C876.334 321.205 876.675 319.595 877.358 318.208C878.062 316.821 879.011 315.755 880.206 315.008C881.4 314.261 882.734 313.888 884.206 313.888ZM889.71 323.072C889.71 321.707 889.326 320.629 888.558 319.84C887.811 319.051 886.894 318.656 885.806 318.656C884.718 318.656 883.79 319.051 883.022 319.84C882.275 320.608 881.902 321.675 881.902 323.04C881.902 324.405 882.275 325.493 883.022 326.304C883.79 327.093 884.718 327.488 885.806 327.488C886.894 327.488 887.811 327.093 888.558 326.304C889.326 325.515 889.71 324.437 889.71 323.072Z" fill="white"/>
<path d="M471.144 449.536V453.92H465.192V472H459.72V453.92H453.768V449.536H471.144ZM490.722 462.784C490.722 463.296 490.69 463.829 490.626 464.384H478.242C478.328 465.493 478.68 466.347 479.298 466.944C479.938 467.52 480.717 467.808 481.634 467.808C483 467.808 483.949 467.232 484.482 466.08H490.306C490.008 467.253 489.464 468.309 488.674 469.248C487.906 470.187 486.936 470.923 485.762 471.456C484.589 471.989 483.277 472.256 481.826 472.256C480.077 472.256 478.52 471.883 477.154 471.136C475.789 470.389 474.722 469.323 473.954 467.936C473.186 466.549 472.802 464.928 472.802 463.072C472.802 461.216 473.176 459.595 473.922 458.208C474.69 456.821 475.757 455.755 477.122 455.008C478.488 454.261 480.056 453.888 481.826 453.888C483.554 453.888 485.09 454.251 486.434 454.976C487.778 455.701 488.824 456.736 489.57 458.08C490.338 459.424 490.722 460.992 490.722 462.784ZM485.122 461.344C485.122 460.405 484.802 459.659 484.162 459.104C483.522 458.549 482.722 458.272 481.762 458.272C480.845 458.272 480.066 458.539 479.426 459.072C478.808 459.605 478.424 460.363 478.274 461.344H485.122ZM492.521 463.072C492.521 461.216 492.894 459.595 493.641 458.208C494.409 456.821 495.465 455.755 496.809 455.008C498.174 454.261 499.732 453.888 501.481 453.888C503.721 453.888 505.588 454.475 507.081 455.648C508.596 456.821 509.588 458.475 510.057 460.608H504.233C503.742 459.243 502.793 458.56 501.385 458.56C500.382 458.56 499.582 458.955 498.985 459.744C498.388 460.512 498.089 461.621 498.089 463.072C498.089 464.523 498.388 465.643 498.985 466.432C499.582 467.2 500.382 467.584 501.385 467.584C502.793 467.584 503.742 466.901 504.233 465.536H510.057C509.588 467.627 508.596 469.269 507.081 470.464C505.566 471.659 503.7 472.256 501.481 472.256C499.732 472.256 498.174 471.883 496.809 471.136C495.465 470.389 494.409 469.323 493.641 467.936C492.894 466.549 492.521 464.928 492.521 463.072ZM523.96 453.952C526.008 453.952 527.651 454.635 528.888 456C530.125 457.344 530.744 459.2 530.744 461.568V472H525.304V462.304C525.304 461.109 524.995 460.181 524.376 459.52C523.757 458.859 522.925 458.528 521.88 458.528C520.835 458.528 520.003 458.859 519.384 459.52C518.765 460.181 518.456 461.109 518.456 462.304V472H512.984V448.32H518.456V456.544C519.011 455.755 519.768 455.125 520.728 454.656C521.688 454.187 522.765 453.952 523.96 453.952ZM537.299 452.288C536.339 452.288 535.549 452.011 534.931 451.456C534.333 450.88 534.035 450.176 534.035 449.344C534.035 448.491 534.333 447.787 534.931 447.232C535.549 446.656 536.339 446.368 537.299 446.368C538.237 446.368 539.005 446.656 539.603 447.232C540.221 447.787 540.531 448.491 540.531 449.344C540.531 450.176 540.221 450.88 539.603 451.456C539.005 452.011 538.237 452.288 537.299 452.288ZM540.019 454.144V472H534.547V454.144H540.019ZM542.896 463.072C542.896 461.216 543.269 459.595 544.016 458.208C544.784 456.821 545.84 455.755 547.184 455.008C548.549 454.261 550.107 453.888 551.856 453.888C554.096 453.888 555.963 454.475 557.456 455.648C558.971 456.821 559.963 458.475 560.432 460.608H554.608C554.117 459.243 553.168 458.56 551.76 458.56C550.757 458.56 549.957 458.955 549.36 459.744C548.763 460.512 548.464 461.621 548.464 463.072C548.464 464.523 548.763 465.643 549.36 466.432C549.957 467.2 550.757 467.584 551.76 467.584C553.168 467.584 554.117 466.901 554.608 465.536H560.432C559.963 467.627 558.971 469.269 557.456 470.464C555.941 471.659 554.075 472.256 551.856 472.256C550.107 472.256 548.549 471.883 547.184 471.136C545.84 470.389 544.784 469.323 544.016 467.936C543.269 466.549 542.896 464.928 542.896 463.072ZM562.271 463.04C562.271 461.205 562.612 459.595 563.295 458.208C563.999 456.821 564.948 455.755 566.143 455.008C567.338 454.261 568.671 453.888 570.143 453.888C571.402 453.888 572.5 454.144 573.439 454.656C574.399 455.168 575.135 455.84 575.647 456.672V454.144H581.119V472H575.647V469.472C575.114 470.304 574.367 470.976 573.407 471.488C572.468 472 571.37 472.256 570.111 472.256C568.66 472.256 567.338 471.883 566.143 471.136C564.948 470.368 563.999 469.291 563.295 467.904C562.612 466.496 562.271 464.875 562.271 463.04ZM575.647 463.072C575.647 461.707 575.263 460.629 574.495 459.84C573.748 459.051 572.831 458.656 571.743 458.656C570.655 458.656 569.727 459.051 568.959 459.84C568.212 460.608 567.839 461.675 567.839 463.04C567.839 464.405 568.212 465.493 568.959 466.304C569.727 467.093 570.655 467.488 571.743 467.488C572.831 467.488 573.748 467.093 574.495 466.304C575.263 465.515 575.647 464.437 575.647 463.072ZM590.55 448.32V472H585.078V448.32H590.55ZM606.769 467.776H613.937V472H601.297V449.536H606.769V467.776ZM633.378 462.784C633.378 463.296 633.347 463.829 633.283 464.384H620.899C620.984 465.493 621.336 466.347 621.955 466.944C622.595 467.52 623.373 467.808 624.291 467.808C625.656 467.808 626.605 467.232 627.139 466.08H632.963C632.664 467.253 632.12 468.309 631.331 469.248C630.563 470.187 629.592 470.923 628.419 471.456C627.245 471.989 625.933 472.256 624.483 472.256C622.733 472.256 621.176 471.883 619.811 471.136C618.445 470.389 617.379 469.323 616.611 467.936C615.843 466.549 615.459 464.928 615.459 463.072C615.459 461.216 615.832 459.595 616.579 458.208C617.347 456.821 618.413 455.755 619.779 455.008C621.144 454.261 622.712 453.888 624.483 453.888C626.211 453.888 627.747 454.251 629.091 454.976C630.435 455.701 631.48 456.736 632.227 458.08C632.995 459.424 633.378 460.992 633.378 462.784ZM627.779 461.344C627.779 460.405 627.459 459.659 626.819 459.104C626.179 458.549 625.379 458.272 624.419 458.272C623.501 458.272 622.723 458.539 622.083 459.072C621.464 459.605 621.08 460.363 620.931 461.344H627.779ZM635.177 463.04C635.177 461.205 635.519 459.595 636.201 458.208C636.905 456.821 637.855 455.755 639.049 455.008C640.244 454.261 641.577 453.888 643.049 453.888C644.308 453.888 645.407 454.144 646.345 454.656C647.305 455.168 648.041 455.84 648.553 456.672V454.144H654.025V472H648.553V469.472C648.02 470.304 647.273 470.976 646.313 471.488C645.375 472 644.276 472.256 643.017 472.256C641.567 472.256 640.244 471.883 639.049 471.136C637.855 470.368 636.905 469.291 636.201 467.904C635.519 466.496 635.177 464.875 635.177 463.04ZM648.553 463.072C648.553 461.707 648.169 460.629 647.401 459.84C646.655 459.051 645.737 458.656 644.649 458.656C643.561 458.656 642.633 459.051 641.865 459.84C641.119 460.608 640.745 461.675 640.745 463.04C640.745 464.405 641.119 465.493 641.865 466.304C642.633 467.093 643.561 467.488 644.649 467.488C645.737 467.488 646.655 467.093 647.401 466.304C648.169 465.515 648.553 464.437 648.553 463.072ZM656.896 463.04C656.896 461.205 657.237 459.595 657.92 458.208C658.624 456.821 659.573 455.755 660.768 455.008C661.963 454.261 663.296 453.888 664.768 453.888C665.941 453.888 667.008 454.133 667.968 454.624C668.949 455.115 669.717 455.776 670.272 456.608V448.32H675.744V472H670.272V469.44C669.76 470.293 669.024 470.976 668.064 471.488C667.125 472 666.027 472.256 664.768 472.256C663.296 472.256 661.963 471.883 660.768 471.136C659.573 470.368 658.624 469.291 657.92 467.904C657.237 466.496 656.896 464.875 656.896 463.04ZM670.272 463.072C670.272 461.707 669.888 460.629 669.12 459.84C668.373 459.051 667.456 458.656 666.368 458.656C665.28 458.656 664.352 459.051 663.584 459.84C662.837 460.608 662.464 461.675 662.464 463.04C662.464 464.405 662.837 465.493 663.584 466.304C664.352 467.093 665.28 467.488 666.368 467.488C667.456 467.488 668.373 467.093 669.12 466.304C669.888 465.515 670.272 464.437 670.272 463.072ZM696.535 462.784C696.535 463.296 696.503 463.829 696.439 464.384H684.055C684.14 465.493 684.492 466.347 685.111 466.944C685.751 467.52 686.529 467.808 687.447 467.808C688.812 467.808 689.761 467.232 690.295 466.08H696.119C695.82 467.253 695.276 468.309 694.487 469.248C693.719 470.187 692.748 470.923 691.575 471.456C690.401 471.989 689.089 472.256 687.639 472.256C685.889 472.256 684.332 471.883 682.967 471.136C681.601 470.389 680.535 469.323 679.767 467.936C678.999 466.549 678.615 464.928 678.615 463.072C678.615 461.216 678.988 459.595 679.735 458.208C680.503 456.821 681.569 455.755 682.935 455.008C684.3 454.261 685.868 453.888 687.639 453.888C689.367 453.888 690.903 454.251 692.247 454.976C693.591 455.701 694.636 456.736 695.383 458.08C696.151 459.424 696.535 460.992 696.535 462.784ZM690.935 461.344C690.935 460.405 690.615 459.659 689.975 459.104C689.335 458.549 688.535 458.272 687.575 458.272C686.657 458.272 685.879 458.539 685.239 459.072C684.62 459.605 684.236 460.363 684.087 461.344H690.935ZM704.894 457.12C705.534 456.139 706.334 455.371 707.294 454.816C708.254 454.24 709.32 453.952 710.494 453.952V459.744H708.99C707.624 459.744 706.6 460.043 705.918 460.64C705.235 461.216 704.894 462.24 704.894 463.712V472H699.422V454.144H704.894V457.12ZM720.373 472.256C718.816 472.256 717.429 471.989 716.213 471.456C714.997 470.923 714.037 470.197 713.333 469.28C712.629 468.341 712.234 467.296 712.149 466.144H717.557C717.621 466.763 717.909 467.264 718.421 467.648C718.933 468.032 719.562 468.224 720.309 468.224C720.992 468.224 721.514 468.096 721.877 467.84C722.261 467.563 722.453 467.211 722.453 466.784C722.453 466.272 722.186 465.899 721.653 465.664C721.12 465.408 720.256 465.131 719.061 464.832C717.781 464.533 716.714 464.224 715.861 463.904C715.008 463.563 714.272 463.04 713.653 462.336C713.034 461.611 712.725 460.64 712.725 459.424C712.725 458.4 713.002 457.472 713.557 456.64C714.133 455.787 714.965 455.115 716.053 454.624C717.162 454.133 718.474 453.888 719.989 453.888C722.229 453.888 723.989 454.443 725.269 455.552C726.57 456.661 727.317 458.133 727.509 459.968H722.453C722.368 459.349 722.09 458.859 721.621 458.496C721.173 458.133 720.576 457.952 719.829 457.952C719.189 457.952 718.698 458.08 718.357 458.336C718.016 458.571 717.845 458.901 717.845 459.328C717.845 459.84 718.112 460.224 718.645 460.48C719.2 460.736 720.053 460.992 721.205 461.248C722.528 461.589 723.605 461.931 724.437 462.272C725.269 462.592 725.994 463.125 726.613 463.872C727.253 464.597 727.584 465.579 727.605 466.816C727.605 467.861 727.306 468.8 726.709 469.632C726.133 470.443 725.29 471.083 724.181 471.552C723.093 472.021 721.824 472.256 720.373 472.256ZM741.929 453.952C743.977 453.952 745.619 454.635 746.857 456C748.094 457.344 748.713 459.2 748.713 461.568V472H743.273V462.304C743.273 461.109 742.963 460.181 742.345 459.52C741.726 458.859 740.894 458.528 739.849 458.528C738.803 458.528 737.971 458.859 737.353 459.52C736.734 460.181 736.425 461.109 736.425 462.304V472H730.953V448.32H736.425V456.544C736.979 455.755 737.737 455.125 738.697 454.656C739.657 454.187 740.734 453.952 741.929 453.952ZM755.267 452.288C754.307 452.288 753.518 452.011 752.899 451.456C752.302 450.88 752.003 450.176 752.003 449.344C752.003 448.491 752.302 447.787 752.899 447.232C753.518 446.656 754.307 446.368 755.267 446.368C756.206 446.368 756.974 446.656 757.571 447.232C758.19 447.787 758.499 448.491 758.499 449.344C758.499 450.176 758.19 450.88 757.571 451.456C756.974 452.011 756.206 452.288 755.267 452.288ZM757.987 454.144V472H752.515V454.144H757.987ZM767.425 456.672C767.958 455.84 768.694 455.168 769.633 454.656C770.571 454.144 771.67 453.888 772.929 453.888C774.401 453.888 775.734 454.261 776.929 455.008C778.123 455.755 779.062 456.821 779.745 458.208C780.449 459.595 780.801 461.205 780.801 463.04C780.801 464.875 780.449 466.496 779.745 467.904C779.062 469.291 778.123 470.368 776.929 471.136C775.734 471.883 774.401 472.256 772.929 472.256C771.691 472.256 770.593 472 769.633 471.488C768.694 470.976 767.958 470.315 767.425 469.504V480.512H761.953V454.144H767.425V456.672ZM775.233 463.04C775.233 461.675 774.849 460.608 774.081 459.84C773.334 459.051 772.406 458.656 771.297 458.656C770.209 458.656 769.281 459.051 768.513 459.84C767.766 460.629 767.393 461.707 767.393 463.072C767.393 464.437 767.766 465.515 768.513 466.304C769.281 467.093 770.209 467.488 771.297 467.488C772.385 467.488 773.313 467.093 774.081 466.304C774.849 465.493 775.233 464.405 775.233 463.04ZM809.909 449.536V472H804.437V462.752H795.925V472H790.453V449.536H795.925V458.336H804.437V449.536H809.909ZM816.611 452.288C815.651 452.288 814.862 452.011 814.243 451.456C813.646 450.88 813.347 450.176 813.347 449.344C813.347 448.491 813.646 447.787 814.243 447.232C814.862 446.656 815.651 446.368 816.611 446.368C817.55 446.368 818.318 446.656 818.915 447.232C819.534 447.787 819.843 448.491 819.843 449.344C819.843 450.176 819.534 450.88 818.915 451.456C818.318 452.011 817.55 452.288 816.611 452.288ZM819.331 454.144V472H813.859V454.144H819.331ZM828.769 457.12C829.409 456.139 830.209 455.371 831.169 454.816C832.129 454.24 833.195 453.952 834.369 453.952V459.744H832.865C831.499 459.744 830.475 460.043 829.793 460.64C829.11 461.216 828.769 462.24 828.769 463.712V472H823.297V454.144H828.769V457.12ZM839.736 452.288C838.776 452.288 837.987 452.011 837.368 451.456C836.771 450.88 836.472 450.176 836.472 449.344C836.472 448.491 836.771 447.787 837.368 447.232C837.987 446.656 838.776 446.368 839.736 446.368C840.675 446.368 841.443 446.656 842.04 447.232C842.659 447.787 842.968 448.491 842.968 449.344C842.968 450.176 842.659 450.88 842.04 451.456C841.443 452.011 840.675 452.288 839.736 452.288ZM842.456 454.144V472H836.984V454.144H842.456ZM857.302 453.952C859.392 453.952 861.056 454.635 862.294 456C863.552 457.344 864.182 459.2 864.182 461.568V472H858.742V462.304C858.742 461.109 858.432 460.181 857.814 459.52C857.195 458.859 856.363 458.528 855.318 458.528C854.272 458.528 853.44 458.859 852.822 459.52C852.203 460.181 851.894 461.109 851.894 462.304V472H846.422V454.144H851.894V456.512C852.448 455.723 853.195 455.104 854.134 454.656C855.072 454.187 856.128 453.952 857.302 453.952ZM874.768 453.888C876.027 453.888 877.125 454.144 878.064 454.656C879.024 455.168 879.76 455.84 880.272 456.672V454.144H885.744V471.968C885.744 473.611 885.413 475.093 884.752 476.416C884.112 477.76 883.12 478.827 881.776 479.616C880.453 480.405 878.8 480.8 876.816 480.8C874.171 480.8 872.027 480.171 870.384 478.912C868.741 477.675 867.803 475.989 867.568 473.856H872.976C873.147 474.539 873.552 475.072 874.192 475.456C874.832 475.861 875.621 476.064 876.56 476.064C877.691 476.064 878.587 475.733 879.248 475.072C879.931 474.432 880.272 473.397 880.272 471.968V469.44C879.739 470.272 879.003 470.955 878.064 471.488C877.125 472 876.027 472.256 874.768 472.256C873.296 472.256 871.963 471.883 870.768 471.136C869.573 470.368 868.624 469.291 867.92 467.904C867.237 466.496 866.896 464.875 866.896 463.04C866.896 461.205 867.237 459.595 867.92 458.208C868.624 456.821 869.573 455.755 870.768 455.008C871.963 454.261 873.296 453.888 874.768 453.888ZM880.272 463.072C880.272 461.707 879.888 460.629 879.12 459.84C878.373 459.051 877.456 458.656 876.368 458.656C875.28 458.656 874.352 459.051 873.584 459.84C872.837 460.608 872.464 461.675 872.464 463.04C872.464 464.405 872.837 465.493 873.584 466.304C874.352 467.093 875.28 467.488 876.368 467.488C877.456 467.488 878.373 467.093 879.12 466.304C879.888 465.515 880.272 464.437 880.272 463.072Z" fill="white"/>
<path d="M456.08 590H450.608L441.456 576.144V590H435.984V567.536H441.456L450.608 581.456V567.536H456.08V590ZM466.734 590.256C464.985 590.256 463.406 589.883 461.998 589.136C460.612 588.389 459.513 587.323 458.702 585.936C457.913 584.549 457.518 582.928 457.518 581.072C457.518 579.237 457.924 577.627 458.734 576.24C459.545 574.832 460.654 573.755 462.062 573.008C463.47 572.261 465.049 571.888 466.799 571.888C468.548 571.888 470.126 572.261 471.535 573.008C472.942 573.755 474.052 574.832 474.863 576.24C475.673 577.627 476.079 579.237 476.079 581.072C476.079 582.907 475.663 584.528 474.83 585.936C474.02 587.323 472.9 588.389 471.47 589.136C470.063 589.883 468.484 590.256 466.734 590.256ZM466.734 585.52C467.78 585.52 468.665 585.136 469.391 584.368C470.137 583.6 470.51 582.501 470.51 581.072C470.51 579.643 470.148 578.544 469.422 577.776C468.718 577.008 467.844 576.624 466.799 576.624C465.732 576.624 464.846 577.008 464.142 577.776C463.438 578.523 463.086 579.621 463.086 581.072C463.086 582.501 463.428 583.6 464.11 584.368C464.815 585.136 465.689 585.52 466.734 585.52ZM488.421 571.952C490.512 571.952 492.176 572.635 493.413 574C494.672 575.344 495.302 577.2 495.302 579.568V590H489.861V580.304C489.861 579.109 489.552 578.181 488.933 577.52C488.315 576.859 487.483 576.528 486.437 576.528C485.392 576.528 484.56 576.859 483.941 577.52C483.323 578.181 483.013 579.109 483.013 580.304V590H477.541V572.144H483.013V574.512C483.568 573.723 484.315 573.104 485.253 572.656C486.192 572.187 487.248 571.952 488.421 571.952ZM511.424 576.496V581.04H497.344V576.496H511.424ZM530.946 567.536V571.92H524.994V590H519.522V571.92H513.57V567.536H530.946ZM549.085 580.784C549.085 581.296 549.053 581.829 548.989 582.384H536.605C536.69 583.493 537.042 584.347 537.661 584.944C538.301 585.52 539.079 585.808 539.997 585.808C541.362 585.808 542.311 585.232 542.845 584.08H548.669C548.37 585.253 547.826 586.309 547.037 587.248C546.269 588.187 545.298 588.923 544.125 589.456C542.951 589.989 541.639 590.256 540.189 590.256C538.439 590.256 536.882 589.883 535.517 589.136C534.151 588.389 533.085 587.323 532.317 585.936C531.549 584.549 531.165 582.928 531.165 581.072C531.165 579.216 531.538 577.595 532.285 576.208C533.053 574.821 534.119 573.755 535.485 573.008C536.85 572.261 538.418 571.888 540.189 571.888C541.917 571.888 543.453 572.251 544.797 572.976C546.141 573.701 547.186 574.736 547.933 576.08C548.701 577.424 549.085 578.992 549.085 580.784ZM543.485 579.344C543.485 578.405 543.165 577.659 542.525 577.104C541.885 576.549 541.085 576.272 540.125 576.272C539.207 576.272 538.429 576.539 537.789 577.072C537.17 577.605 536.786 578.363 536.637 579.344H543.485ZM549.444 581.072C549.444 579.216 549.817 577.595 550.564 576.208C551.332 574.821 552.388 573.755 553.732 573.008C555.097 572.261 556.654 571.888 558.404 571.888C560.644 571.888 562.51 572.475 564.004 573.648C565.518 574.821 566.51 576.475 566.98 578.608H561.156C560.665 577.243 559.716 576.56 558.308 576.56C557.305 576.56 556.505 576.955 555.908 577.744C555.31 578.512 555.012 579.621 555.012 581.072C555.012 582.523 555.31 583.643 555.908 584.432C556.505 585.2 557.305 585.584 558.308 585.584C559.716 585.584 560.665 584.901 561.156 583.536H566.98C566.51 585.627 565.518 587.269 564.004 588.464C562.489 589.659 560.622 590.256 558.404 590.256C556.654 590.256 555.097 589.883 553.732 589.136C552.388 588.389 551.332 587.323 550.564 585.936C549.817 584.549 549.444 582.928 549.444 581.072ZM579.442 571.952C581.49 571.952 583.133 572.635 584.37 574C585.608 575.344 586.226 577.2 586.226 579.568V590H580.786V580.304C580.786 579.109 580.477 578.181 579.858 577.52C579.24 576.859 578.408 576.528 577.362 576.528C576.317 576.528 575.485 576.859 574.866 577.52C574.248 578.181 573.938 579.109 573.938 580.304V590H568.466V566.32H573.938V574.544C574.493 573.755 575.25 573.125 576.21 572.656C577.17 572.187 578.248 571.952 579.442 571.952ZM591.341 570.288C590.381 570.288 589.592 570.011 588.973 569.456C588.376 568.88 588.077 568.176 588.077 567.344C588.077 566.491 588.376 565.787 588.973 565.232C589.592 564.656 590.381 564.368 591.341 564.368C592.28 564.368 593.048 564.656 593.645 565.232C594.264 565.787 594.573 566.491 594.573 567.344C594.573 568.176 594.264 568.88 593.645 569.456C593.048 570.011 592.28 570.288 591.341 570.288ZM594.061 572.144V590H588.589V572.144H594.061ZM595.498 581.072C595.498 579.216 595.872 577.595 596.618 576.208C597.386 574.821 598.442 573.755 599.786 573.008C601.152 572.261 602.709 571.888 604.458 571.888C606.698 571.888 608.565 572.475 610.058 573.648C611.573 574.821 612.565 576.475 613.034 578.608H607.21C606.72 577.243 605.77 576.56 604.362 576.56C603.36 576.56 602.56 576.955 601.962 577.744C601.365 578.512 601.066 579.621 601.066 581.072C601.066 582.523 601.365 583.643 601.962 584.432C602.56 585.2 603.36 585.584 604.362 585.584C605.77 585.584 606.72 584.901 607.21 583.536H613.034C612.565 585.627 611.573 587.269 610.058 588.464C608.544 589.659 606.677 590.256 604.458 590.256C602.709 590.256 601.152 589.883 599.786 589.136C598.442 588.389 597.386 587.323 596.618 585.936C595.872 584.549 595.498 582.928 595.498 581.072ZM613.434 581.04C613.434 579.205 613.775 577.595 614.458 576.208C615.162 574.821 616.111 573.755 617.306 573.008C618.5 572.261 619.834 571.888 621.306 571.888C622.564 571.888 623.663 572.144 624.602 572.656C625.562 573.168 626.298 573.84 626.81 574.672V572.144H632.282V590H626.81V587.472C626.276 588.304 625.53 588.976 624.57 589.488C623.631 590 622.532 590.256 621.274 590.256C619.823 590.256 618.5 589.883 617.306 589.136C616.111 588.368 615.162 587.291 614.458 585.904C613.775 584.496 613.434 582.875 613.434 581.04ZM626.81 581.072C626.81 579.707 626.426 578.629 625.658 577.84C624.911 577.051 623.994 576.656 622.906 576.656C621.818 576.656 620.89 577.051 620.122 577.84C619.375 578.608 619.002 579.675 619.002 581.04C619.002 582.405 619.375 583.493 620.122 584.304C620.89 585.093 621.818 585.488 622.906 585.488C623.994 585.488 624.911 585.093 625.658 584.304C626.426 583.515 626.81 582.437 626.81 581.072ZM640.272 566.32V590H634.8V566.32H640.272ZM653.611 585.776H660.779V590H648.139V567.536H653.611V585.776ZM678.781 580.784C678.781 581.296 678.749 581.829 678.685 582.384H666.301C666.386 583.493 666.738 584.347 667.357 584.944C667.997 585.52 668.776 585.808 669.693 585.808C671.058 585.808 672.008 585.232 672.541 584.08H678.365C678.066 585.253 677.522 586.309 676.733 587.248C675.965 588.187 674.994 588.923 673.821 589.456C672.648 589.989 671.336 590.256 669.885 590.256C668.136 590.256 666.578 589.883 665.213 589.136C663.848 588.389 662.781 587.323 662.013 585.936C661.245 584.549 660.861 582.928 660.861 581.072C660.861 579.216 661.234 577.595 661.981 576.208C662.749 574.821 663.816 573.755 665.181 573.008C666.546 572.261 668.114 571.888 669.885 571.888C671.613 571.888 673.149 572.251 674.493 572.976C675.837 573.701 676.882 574.736 677.629 576.08C678.397 577.424 678.781 578.992 678.781 580.784ZM673.181 579.344C673.181 578.405 672.861 577.659 672.221 577.104C671.581 576.549 670.781 576.272 669.821 576.272C668.904 576.272 668.125 576.539 667.485 577.072C666.866 577.605 666.482 578.363 666.333 579.344H673.181ZM679.14 581.04C679.14 579.205 679.481 577.595 680.164 576.208C680.868 574.821 681.817 573.755 683.012 573.008C684.206 572.261 685.54 571.888 687.012 571.888C688.27 571.888 689.369 572.144 690.308 572.656C691.268 573.168 692.004 573.84 692.516 574.672V572.144H697.988V590H692.516V587.472C691.982 588.304 691.236 588.976 690.276 589.488C689.337 590 688.238 590.256 686.98 590.256C685.529 590.256 684.206 589.883 683.012 589.136C681.817 588.368 680.868 587.291 680.164 585.904C679.481 584.496 679.14 582.875 679.14 581.04ZM692.516 581.072C692.516 579.707 692.132 578.629 691.364 577.84C690.617 577.051 689.7 576.656 688.612 576.656C687.524 576.656 686.596 577.051 685.828 577.84C685.081 578.608 684.708 579.675 684.708 581.04C684.708 582.405 685.081 583.493 685.828 584.304C686.596 585.093 687.524 585.488 688.612 585.488C689.7 585.488 690.617 585.093 691.364 584.304C692.132 583.515 692.516 582.437 692.516 581.072ZM699.418 581.04C699.418 579.205 699.76 577.595 700.442 576.208C701.146 574.821 702.096 573.755 703.29 573.008C704.485 572.261 705.818 571.888 707.29 571.888C708.464 571.888 709.53 572.133 710.49 572.624C711.472 573.115 712.24 573.776 712.794 574.608V566.32H718.266V590H712.794V587.44C712.282 588.293 711.546 588.976 710.586 589.488C709.648 590 708.549 590.256 707.29 590.256C705.818 590.256 704.485 589.883 703.29 589.136C702.096 588.368 701.146 587.291 700.442 585.904C699.76 584.496 699.418 582.875 699.418 581.04ZM712.794 581.072C712.794 579.707 712.41 578.629 711.642 577.84C710.896 577.051 709.978 576.656 708.89 576.656C707.802 576.656 706.874 577.051 706.106 577.84C705.36 578.608 704.986 579.675 704.986 581.04C704.986 582.405 705.36 583.493 706.106 584.304C706.874 585.093 707.802 585.488 708.89 585.488C709.978 585.488 710.896 585.093 711.642 584.304C712.41 583.515 712.794 582.437 712.794 581.072ZM737.617 580.784C737.617 581.296 737.585 581.829 737.521 582.384H725.137C725.223 583.493 725.575 584.347 726.193 584.944C726.833 585.52 727.612 585.808 728.529 585.808C729.895 585.808 730.844 585.232 731.377 584.08H737.201C736.903 585.253 736.359 586.309 735.569 587.248C734.801 588.187 733.831 588.923 732.657 589.456C731.484 589.989 730.172 590.256 728.721 590.256C726.972 590.256 725.415 589.883 724.049 589.136C722.684 588.389 721.617 587.323 720.849 585.936C720.081 584.549 719.697 582.928 719.697 581.072C719.697 579.216 720.071 577.595 720.817 576.208C721.585 574.821 722.652 573.755 724.017 573.008C725.383 572.261 726.951 571.888 728.721 571.888C730.449 571.888 731.985 572.251 733.329 572.976C734.673 573.701 735.719 574.736 736.465 576.08C737.233 577.424 737.617 578.992 737.617 580.784ZM732.017 579.344C732.017 578.405 731.697 577.659 731.057 577.104C730.417 576.549 729.617 576.272 728.657 576.272C727.74 576.272 726.961 576.539 726.321 577.072C725.703 577.605 725.319 578.363 725.169 579.344H732.017ZM744.536 575.12C745.176 574.139 745.976 573.371 746.936 572.816C747.896 572.24 748.963 571.952 750.136 571.952V577.744H748.632C747.267 577.744 746.243 578.043 745.56 578.64C744.877 579.216 744.536 580.24 744.536 581.712V590H739.064V572.144H744.536V575.12ZM758.575 590.256C757.018 590.256 755.631 589.989 754.415 589.456C753.199 588.923 752.239 588.197 751.535 587.28C750.831 586.341 750.437 585.296 750.351 584.144H755.759C755.823 584.763 756.111 585.264 756.623 585.648C757.135 586.032 757.765 586.224 758.511 586.224C759.194 586.224 759.717 586.096 760.079 585.84C760.463 585.563 760.655 585.211 760.655 584.784C760.655 584.272 760.389 583.899 759.855 583.664C759.322 583.408 758.458 583.131 757.263 582.832C755.983 582.533 754.917 582.224 754.063 581.904C753.21 581.563 752.474 581.04 751.855 580.336C751.237 579.611 750.927 578.64 750.927 577.424C750.927 576.4 751.205 575.472 751.759 574.64C752.335 573.787 753.167 573.115 754.255 572.624C755.365 572.133 756.677 571.888 758.191 571.888C760.431 571.888 762.191 572.443 763.471 573.552C764.773 574.661 765.519 576.133 765.711 577.968H760.655C760.57 577.349 760.293 576.859 759.823 576.496C759.375 576.133 758.778 575.952 758.031 575.952C757.391 575.952 756.901 576.08 756.559 576.336C756.218 576.571 756.047 576.901 756.047 577.328C756.047 577.84 756.314 578.224 756.847 578.48C757.402 578.736 758.255 578.992 759.407 579.248C760.73 579.589 761.807 579.931 762.639 580.272C763.471 580.592 764.197 581.125 764.815 581.872C765.455 582.597 765.786 583.579 765.807 584.816C765.807 585.861 765.509 586.8 764.911 587.632C764.335 588.443 763.493 589.083 762.383 589.552C761.295 590.021 760.026 590.256 758.575 590.256ZM778.691 571.952C780.739 571.952 782.382 572.635 783.619 574C784.857 575.344 785.475 577.2 785.475 579.568V590H780.035V580.304C780.035 579.109 779.726 578.181 779.107 577.52C778.489 576.859 777.657 576.528 776.611 576.528C775.566 576.528 774.734 576.859 774.115 577.52C773.497 578.181 773.187 579.109 773.187 580.304V590H767.715V566.32H773.187V574.544C773.742 573.755 774.499 573.125 775.459 572.656C776.419 572.187 777.497 571.952 778.691 571.952ZM790.59 570.288C789.63 570.288 788.84 570.011 788.222 569.456C787.624 568.88 787.326 568.176 787.326 567.344C787.326 566.491 787.624 565.787 788.222 565.232C788.84 564.656 789.63 564.368 790.59 564.368C791.528 564.368 792.296 564.656 792.894 565.232C793.512 565.787 793.822 566.491 793.822 567.344C793.822 568.176 793.512 568.88 792.894 569.456C792.296 570.011 791.528 570.288 790.59 570.288ZM793.31 572.144V590H787.838V572.144H793.31ZM801.307 574.672C801.841 573.84 802.577 573.168 803.515 572.656C804.454 572.144 805.553 571.888 806.811 571.888C808.283 571.888 809.617 572.261 810.811 573.008C812.006 573.755 812.945 574.821 813.627 576.208C814.331 577.595 814.683 579.205 814.683 581.04C814.683 582.875 814.331 584.496 813.627 585.904C812.945 587.291 812.006 588.368 810.811 589.136C809.617 589.883 808.283 590.256 806.811 590.256C805.574 590.256 804.475 590 803.515 589.488C802.577 588.976 801.841 588.315 801.307 587.504V598.512H795.835V572.144H801.307V574.672ZM809.115 581.04C809.115 579.675 808.731 578.608 807.963 577.84C807.217 577.051 806.289 576.656 805.179 576.656C804.091 576.656 803.163 577.051 802.395 577.84C801.649 578.629 801.275 579.707 801.275 581.072C801.275 582.437 801.649 583.515 802.395 584.304C803.163 585.093 804.091 585.488 805.179 585.488C806.267 585.488 807.195 585.093 807.963 584.304C808.731 583.493 809.115 582.405 809.115 581.04ZM840.911 567.536V590H835.439V580.752H826.927V590H821.455V567.536H826.927V576.336H835.439V567.536H840.911ZM846.174 570.288C845.214 570.288 844.424 570.011 843.806 569.456C843.208 568.88 842.91 568.176 842.91 567.344C842.91 566.491 843.208 565.787 843.806 565.232C844.424 564.656 845.214 564.368 846.174 564.368C847.112 564.368 847.88 564.656 848.478 565.232C849.096 565.787 849.406 566.491 849.406 567.344C849.406 568.176 849.096 568.88 848.478 569.456C847.88 570.011 847.112 570.288 846.174 570.288ZM848.894 572.144V590H843.422V572.144H848.894ZM856.891 575.12C857.531 574.139 858.331 573.371 859.291 572.816C860.251 572.24 861.318 571.952 862.491 571.952V577.744H860.987C859.622 577.744 858.598 578.043 857.915 578.64C857.232 579.216 856.891 580.24 856.891 581.712V590H851.419V572.144H856.891V575.12ZM866.418 570.288C865.458 570.288 864.669 570.011 864.05 569.456C863.453 568.88 863.154 568.176 863.154 567.344C863.154 566.491 863.453 565.787 864.05 565.232C864.669 564.656 865.458 564.368 866.418 564.368C867.357 564.368 868.125 564.656 868.722 565.232C869.341 565.787 869.65 566.491 869.65 567.344C869.65 568.176 869.341 568.88 868.722 569.456C868.125 570.011 867.357 570.288 866.418 570.288ZM869.138 572.144V590H863.666V572.144H869.138ZM882.544 571.952C884.635 571.952 886.299 572.635 887.536 574C888.795 575.344 889.424 577.2 889.424 579.568V590H883.984V580.304C883.984 579.109 883.675 578.181 883.056 577.52C882.437 576.859 881.605 576.528 880.56 576.528C879.515 576.528 878.683 576.859 878.064 577.52C877.445 578.181 877.136 579.109 877.136 580.304V590H871.664V572.144H877.136V574.512C877.691 573.723 878.437 573.104 879.376 572.656C880.315 572.187 881.371 571.952 882.544 571.952ZM898.57 571.888C899.829 571.888 900.928 572.144 901.866 572.656C902.826 573.168 903.562 573.84 904.074 574.672V572.144H909.546V589.968C909.546 591.611 909.216 593.093 908.554 594.416C907.914 595.76 906.922 596.827 905.578 597.616C904.256 598.405 902.602 598.8 900.618 598.8C897.973 598.8 895.829 598.171 894.186 596.912C892.544 595.675 891.605 593.989 891.37 591.856H896.778C896.949 592.539 897.354 593.072 897.994 593.456C898.634 593.861 899.424 594.064 900.362 594.064C901.493 594.064 902.389 593.733 903.05 593.072C903.733 592.432 904.074 591.397 904.074 589.968V587.44C903.541 588.272 902.805 588.955 901.866 589.488C900.928 590 899.829 590.256 898.57 590.256C897.098 590.256 895.765 589.883 894.57 589.136C893.376 588.368 892.426 587.291 891.722 585.904C891.04 584.496 890.698 582.875 890.698 581.04C890.698 579.205 891.04 577.595 891.722 576.208C892.426 574.821 893.376 573.755 894.57 573.008C895.765 572.261 897.098 571.888 898.57 571.888ZM904.074 581.072C904.074 579.707 903.69 578.629 902.922 577.84C902.176 577.051 901.258 576.656 900.17 576.656C899.082 576.656 898.154 577.051 897.386 577.84C896.64 578.608 896.266 579.675 896.266 581.04C896.266 582.405 896.64 583.493 897.386 584.304C898.154 585.093 899.082 585.488 900.17 585.488C901.258 585.488 902.176 585.093 902.922 584.304C903.69 583.515 904.074 582.437 904.074 581.072Z" fill="white"/>
<path fill-rule="evenodd" clip-rule="evenodd" d="M347 321C347 455.994 236.176 565 100 565C-36.1763 565 -147 455.994 -147 321C-147 186.006 -36.1763 77 100 77C236.176 77 347 186.006 347 321ZM100 546C225.921 546 328 445.264 328 321C328 196.736 225.921 96 100 96C-25.9209 96 -128 196.736 -128 321C-128 445.264 -25.9209 546 100 546Z" fill="black" fill-opacity="0.22"/>
<path d="M197.5 96.5C157.9 79.3 115 76.5 94.5 77C98.5 86 97.1667 93.1666 95 96C136.2 94.8 175.833 107.333 190 114C189.2 106.8 195 99.1667 197.5 96.5Z" fill="#5440B8"/>
<path d="M303.025 181.546C278.784 145.82 244.046 120.491 226.463 109.94C225.024 119.683 217.847 125.267 214.5 126.5C249.943 147.54 278.925 179.098 287.323 192.313C290.501 185.803 299.486 182.46 303.025 181.546Z" fill="#BDDB2A"/>
<path d="M347.431 310.149C345.207 267.032 329.072 226.635 319.5 208.5C313.221 216.088 303.737 217.88 300.235 217.201C319.648 253.561 327.164 295.847 327.5 311.5C333.591 307.579 343.93 309.097 347.431 310.149Z" fill="#6754E2"/>
<path d="M317.368 437.51C338.201 399.695 345.779 356.859 347.201 336.403C337.866 339.542 328.862 336.067 326.244 333.644C323.579 374.776 307.682 414.674 299.718 428.154C306.961 428.032 314.947 434.771 317.368 437.51Z" fill="#6754E2"/>
<path d="M226.738 530.594C264.409 509.501 293.982 476.615 306 460C296.416 457.732 290.105 450.548 289.162 447.108C265.164 480.618 229.885 506.265 216 513.5C222.214 517.224 226.13 526.99 226.738 530.594Z" fill="#BDDB2A"/>
<path d="M94.6058 565.5C137.757 566.91 180.429 554.442 199.304 546.428C192.271 539.533 190.581 530.122 191.552 526.69C153.689 542.976 110.232 546.7 94.6058 545.718C98.0008 552.118 95.9482 562.1 94.6058 565.5Z" fill="#5440B8"/>
<path fill-rule="evenodd" clip-rule="evenodd" d="M269.912 68.1962C270.664 67.431 271.692 67 272.765 67L391.5 67C392.605 67 393.5 67.8954 393.5 69V69C393.5 70.1046 392.605 71 391.5 71L274.442 71C273.369 71 272.341 71.431 271.589 72.1962L246.255 97.9754C245.481 98.7632 244.214 98.7742 243.426 98V98C242.639 97.2258 242.628 95.9595 243.402 95.1717L269.912 68.1962Z" fill="#A8A8A8"/>
<path fill-rule="evenodd" clip-rule="evenodd" d="M269.912 578.206C270.664 578.971 271.692 579.402 272.765 579.402L391.5 579.402C392.605 579.402 393.5 578.506 393.5 577.402V577.402C393.5 576.297 392.605 575.402 391.5 575.402L274.442 575.402C273.369 575.402 272.341 574.971 271.589 574.206L246.255 548.426C245.481 547.639 244.214 547.628 243.426 548.402V548.402C242.639 549.176 242.628 550.442 243.402 551.23L269.912 578.206Z" fill="#A8A8A8"/>
<path fill-rule="evenodd" clip-rule="evenodd" d="M349.917 187.137C350.664 186.408 351.667 186 352.711 186H397.897C399.001 186 399.897 186.895 399.897 188V188C399.897 189.105 399.001 190 397.897 190H353.932C353.149 190 352.397 190.306 351.837 190.853L334.225 208.035C333.434 208.806 332.168 208.791 331.397 208V208C330.625 207.209 330.641 205.943 331.432 205.172L349.917 187.137Z" fill="#A8A8A8"/>
<path fill-rule="evenodd" clip-rule="evenodd" d="M349.917 461.295C350.664 462.024 351.667 462.432 352.711 462.432H397.897C399.001 462.432 399.897 461.536 399.897 460.432V460.432C399.897 459.327 399.001 458.432 397.897 458.432H353.932C353.149 458.432 352.397 458.126 351.837 457.579L334.225 440.397C333.434 439.625 332.168 439.641 331.397 440.432V440.432C330.625 441.222 330.641 442.488 331.432 443.26L349.917 461.295Z" fill="#A8A8A8"/>
<path fill-rule="evenodd" clip-rule="evenodd" d="M399.5 322C399.5 323.105 398.605 324 397.5 324H367C365.895 324 365 323.105 365 322V322C365 320.895 365.895 320 367 320H397.5C398.605 320 399.5 320.895 399.5 322V322Z" fill="#A8A8A8"/>
<rect width="70" height="642" fill="white"/>
<circle cx="81" cy="89" r="20" fill="#008000"/>
<circle cx="339" cy="322" r="20" fill="white"/>
<circle cx="339" cy="322" r="19.5" stroke="black" stroke-opacity="0.26"/>
<circle cx="305" cy="443" r="20" fill="#00A9CA"/>
<circle cx="305" cy="201" r="20" fill="#00A9CA"/>
<circle cx="210" cy="530" r="20" fill="#FFE10C"/>
<circle cx="210" cy="113" r="20" fill="#FFE10C"/>
<circle cx="81" cy="556" r="20" fill="#008000"/>
</g>
<defs>
<clipPath id="clip0_1_3">
<rect width="992" height="642" fill="white"/>
</clipPath>
</defs>
</svg>
